Coordinates
version=1
nRows=16
nColumns=36
inDegrees=yes

Units are S.I. units (second, meters, Newtons, ...)
If the header above contains a line with 'inDegrees', this indicates whether rotational values are in degrees (yes) or radians (no).

endheader
time	pelvis_tilt	pelvis_list	pelvis_rotation	pelvis_tx	pelvis_ty	pelvis_tz	hip_flexion_r	hip_adduction_r	hip_rotation_r	knee_angle_r	knee_angle_r_beta	ankle_angle_r	subtalar_angle_r	mtp_angle_r	hip_flexion_l	hip_adduction_l	hip_rotation_l	knee_angle_l	knee_angle_l_beta	ankle_angle_l	subtalar_angle_l	mtp_angle_l	lumbar_extension	lumbar_bending	lumbar_rotation	arm_flex_r	arm_add_r	arm_rot_r	elbow_flex_r	pro_sup_r	arm_flex_l	arm_add_l	arm_rot_l	elbow_flex_l	pro_sup_l
      1.29000000	    -18.58431234	      0.90245458	     -6.10709566	     -0.31297608	      0.63732967	     -0.56116050	     80.37874407	      5.79159555	      6.33368810	     93.56378906	      1.63299618	     30.20155007	    -12.35736364	     -7.50570852	     78.54798636	     -8.95743187	     -1.13394417	     96.55639689	      1.68522704	     35.35654696	      0.16177544	     -7.50570852	    -38.65749906	      0.19868609	     -6.86777832	    119.91284404	     -6.72594171	     30.63693350	    103.29924767	    101.99682508	    126.36656766	    -13.65677449	     41.63506439	    104.42920600	    106.90281162
      1.30000000	    -18.18947843	      0.92768797	     -5.64731296	     -0.30654698	      0.64721189	     -0.56081520	     78.27033037	      5.65313872	      6.63829369	     92.21689250	      1.60948840	     30.25916223	    -13.03623485	     -7.50562276	     76.57364644	     -8.77441753	     -1.58295705	     94.97872393	      1.65769145	     34.92651493	      0.61171046	     -7.50562276	    -37.53515893	      0.17366287	     -7.91747266	    121.68785500	     -7.82875034	     31.08881724	    103.55999005	    101.56415614	    128.90431480	    -13.84864648	     43.29018447	    102.92145088	    106.81995297
      1.31000000	    -17.71099573	      1.01483668	     -5.30163094	     -0.29976745	      0.65788341	     -0.55995573	     76.00960966	      5.60534314	      6.97890418	     90.68875381	      1.58281735	     29.57376581	    -14.32996682	     -7.50523164	     74.40676197	     -8.75074111	     -2.15011212	     93.28298976	      1.62809531	     34.60833013	      1.19101750	     -7.50523164	    -36.33736323	     -0.07477339	     -9.19526240	    122.66519595	     -8.93426407	     31.39103247	    103.95397876	     99.20646712	    131.52091130	    -14.49543267	     45.85355208	    101.62733990	    107.28183513
      1.32000000	    -17.07296449	      1.00983904	     -4.90113323	     -0.29258277	      0.66952672	     -0.55929087	     73.46287829	      5.39127505	      7.14808834	     89.01266813	      1.55356413	     29.46126212	    -14.62284576	     -7.50513636	     72.00928529	     -8.65873760	     -2.59696705	     91.45655152	      1.59621795	     33.94373156	      1.65226509	     -7.50513636	    -35.14041133	     -0.05381337	     -9.95911447	    123.84296299	    -10.71687005	     33.18092384	    104.17533661	     98.73212217	    133.36844153	    -15.21256973	     48.09280376	    100.74606577	    107.46114277
      1.33000000	    -16.37922772	      1.01931949	     -4.48386817	     -0.28501582	      0.68220747	     -0.55858864	     70.77688786	      5.06948469	      7.18672164	     87.12058178	      1.52054100	     28.75413081	    -15.34714904	     -7.50495417	     69.41567091	     -8.51360699	     -3.05696217	     89.39419064	      1.56022296	     33.23835359	      2.05798916	     -7.50495417	    -33.90873611	     -0.18367948	    -11.03261459	    124.36761139	    -12.70814910	     35.06115416	    104.85042246	     97.61139329	    135.45395764	    -16.30378203	     51.40642444	    100.10146616	    108.09807526
      1.34000000	    -15.73449189	      1.02275242	     -4.07174351	     -0.27709320	      0.69580476	     -0.55794450	     68.04827380	      4.68067275	      7.07257042	     84.97733692	      1.48313432	     27.51824376	    -16.51185966	     -7.50421313	     66.75552961	     -8.33766416	     -3.49751652	     87.08278209	      1.51988127	     32.22049855	      2.44113920	     -7.50421313	    -32.51825164	     -0.35491730	    -12.18140902	    124.50707665	    -15.06953630	     37.60326755	    106.28345301	     93.40256286	    137.47136523	    -17.75779648	     55.27585467	     99.92372204	    108.94063064
      1.35000000	    -15.08720420	      0.97947667	     -3.71326245	     -0.26880675	      0.71034585	     -0.55735917	     65.20674498	      4.25067576	      6.79109155	     82.61210469	      1.44185323	     26.84241530	    -16.63976420	     -7.50411836	     63.98282445	     -8.23559678	     -3.95009795	     84.56548658	      1.47594617	     31.11062343	      2.86104421	     -7.50411836	    -30.88796065	     -0.48453020	    -12.96531597	    124.35460492	    -17.89803885	     40.79524830	    107.94045049	     93.35119758	    138.81690556	    -19.33036011	     59.15370184	     99.97332303	    109.00568847
      1.36000000	    -14.53834761	      0.92745570	     -3.38510709	     -0.26018134	      0.72576963	     -0.55690699	     62.35207583	      3.79150750	      6.43048306	     79.96075595	      1.39557846	     25.71689558	    -16.87087759	     -7.50403662	     61.19445628	     -8.13580997	     -4.42398140	     81.77097963	      1.42717283	     29.70968981	      3.21818631	     -7.50403662	    -28.85965753	     -0.47942984	    -13.45340974	    123.76294990	    -20.72388460	     44.40269953	    109.89694603	     93.41693110	    139.40777737	    -21.40403673	     63.05990862	    100.40168641	    108.97020062
      1.37000000	    -13.95385951	      0.86433321	     -3.09995562	     -0.25128292	      0.74230265	     -0.55663241	     59.34233506	      3.26086052	      5.96646321	     76.99444801	      1.34380662	     24.21564508	    -17.00831356	     -7.50395867	     58.22863271	     -8.00774853	     -4.90018157	     78.66949969	      1.37304179	     28.02805774	      3.44669086	     -7.50395867	    -26.85002872	     -0.45598856	    -13.62767327	    123.15468698	    -23.90103816	     48.29287492	    112.31929093	     93.60594953	    139.71291295	    -23.65825468	     67.03222915	    101.08281465	    108.83748691
      1.38000000	    -13.25785785	      0.81512862	     -2.84753626	     -0.24225398	      0.75993870	     -0.55650540	     56.10636113	      2.63505473	      5.37533440	     73.69802299	      1.28627315	     22.36601621	    -17.08828862	     -7.50387637	     55.01862089	     -7.88405480	     -5.48164622	     75.25803470	      1.31350049	     26.04557934	      3.54245836	     -7.50387637	    -25.17960317	     -0.49952371	    -13.58748232	    122.70099128	    -27.58200767	     52.20754810	    115.28030666	     93.91495807	    140.30365279	    -25.87050446	     71.21523393	    102.12008913	    108.60945551
      1.39000000	    -12.50909593	      0.80977346	     -2.57998760	     -0.23321588	      0.77850981	     -0.55653111	     52.67995029	      1.97737146	      4.82991515	     70.04049866	      1.22243731	     19.83505623	    -17.64542796	     -7.50368975	     51.63739037	     -7.66817429	     -6.13684657	     71.49019297	      1.24773925	     23.72552053	      3.26606981	     -7.50368975	    -23.72290306	     -0.60664237	    -13.50092323	    122.13515955	    -31.61463816	     56.03226722	    118.50379051	     94.40636427	    141.07031930	    -28.11964820	     75.71999091	    103.65134470	    107.65842991
      1.40000000	    -11.70760193	      1.06377442	     -2.37919681	     -0.22393703	      0.79816156	     -0.55651376	     49.10857379	      1.02797670	      4.29655113	     66.07373384	      1.15320420	     17.69113140	    -16.99909202	     -7.50357813	     47.90194367	     -7.27323509	     -7.04047918	     67.18062220	      1.17252305	     21.19766922	      3.67504821	     -7.50357813	    -22.36162913	     -1.03720344	    -13.31932875	    121.04928442	    -35.88734275	     59.55806028	    121.91702736	     95.11487269	    141.40277767	    -30.36430415	     79.72897034	    105.51839460	    107.40282114
      1.41000000	    -10.73531241	      1.61112422	     -2.21162966	     -0.21433618	      0.81920496	     -0.55648922	     45.19871397	     -0.26469256	      3.72687857	     61.70226609	      1.07690770	     15.26397352	    -16.11101592	     -7.50346857	     43.64903354	     -6.56058783	     -8.20907648	     62.18257945	      1.08529075	     18.13128957	      4.13005888	     -7.50346857	    -21.15088093	     -1.86286542	    -13.10965424	    119.14547887	    -40.37342597	     62.91627020	    125.21419152	     96.00833069	    141.19917587	    -32.53545672	     83.60061691	    107.43680918	    107.28584010
      1.42000000	     -9.59650605	      2.43441229	     -2.10832270	     -0.20435215	      0.84172788	     -0.55640512	     40.88301737	     -1.88843630	      3.00361262	     56.76805337	      0.99078944	     12.55178114	    -14.75032383	     -7.50346047	     38.83742641	     -5.50470644	     -9.50611385	     56.33995304	      0.98331768	     14.52486987	      5.30791880	     -7.50346047	    -20.05471133	     -2.97700894	    -12.79023724	    116.25445898	    -44.77537991	     65.90521877	    128.05528399	     97.01208204	    140.13500522	    -34.86735935	     87.02553528	    109.37631147	    107.92133104
      1.43000000	     -8.46760693	      3.36078196	     -1.99692768	     -0.19408690	      0.86554705	     -0.55621682	     36.21393709	     -3.63624844	      2.02847078	     50.99301504	      0.88999601	      9.26018290	    -13.34212655	     -7.50335673	     33.76389159	     -4.17958114	    -10.79780008	     49.64480553	      0.86646531	      9.59569842	      5.58541518	     -7.50335673	    -18.88133767	     -4.37340584	    -12.03553091	    111.93356060	    -49.85266729	     68.47733253	    130.70105171	     98.23650059	    137.95388548	    -36.51977721	     90.21531053	    110.58120739	    107.86394434
      1.44000000	     -7.52125385	      4.16404114	     -1.83072466	     -0.18332609	      0.89037083	     -0.55607103	     31.24733284	     -5.23942488	      0.73339582	     44.21930523	      0.77177247	      5.25126350	    -11.43345984	     -7.50326677	     28.67880133	     -2.82511264	    -11.88309881	     42.26101445	      0.73759385	      3.80114606	      6.54490874	     -7.50326677	    -17.32643273	     -5.56071334	    -11.02493473	    105.77957567	    -54.70798862	     70.41746470	    132.62289698	     99.19613251	    133.93126787	    -38.30166021	     92.24919037	    111.35499882	    107.80199152
